<mxfile host="app.diagrams.net" modified="2022-10-11T07:18:34.126Z" agent="5.0 (Windows NT 10.0; WOW64) AppleWebKit/537.36 (KHTML, like Gecko) Chrome/86.0.4240.198 Safari/537.36" etag="omsRn_bNAP1h1tc251aJ" version="20.3.0" type="github">
  <diagram id="v4NcV1EOcFVTRIT4R_Up" name="第 1 页">
    <mxGraphModel dx="1038" dy="545" grid="1" gridSize="10" guides="1" tooltips="1" connect="1" arrows="1" fold="1" page="1" pageScale="1" pageWidth="827" pageHeight="1169" math="0" shadow="0">
      <root>
        <mxCell id="0" />
        <mxCell id="1" parent="0" />
        <mxCell id="l84PdnCawKySDigee48M-1" value="handleBtnPress" style="rounded=0;whiteSpace=wrap;html=1;" vertex="1" parent="1">
          <mxGeometry x="310" y="250" width="120" height="60" as="geometry" />
        </mxCell>
        <mxCell id="l84PdnCawKySDigee48M-2" value="void StateMachine::handleBtnPress(EM_TVM_UI_STATUS curPage, QString objectName, int value, EM_TVM_UI_STATUS dst)" style="text;whiteSpace=wrap;html=1;" vertex="1" parent="1">
          <mxGeometry x="230" y="320" width="730" height="50" as="geometry" />
        </mxCell>
        <mxCell id="l84PdnCawKySDigee48M-3" value="" style="shape=curlyBracket;whiteSpace=wrap;html=1;rounded=1;direction=south;" vertex="1" parent="1">
          <mxGeometry x="600" y="300" width="300" height="20" as="geometry" />
        </mxCell>
        <mxCell id="l84PdnCawKySDigee48M-4" value="//UI触发状态机&#xa;typedef struct&#xa;{&#xa;    QString objectName;&#xa;    int value;&#xa;    EM_TVM_UI_STATUS dst;&#xa;}ST_UI_EVENT;" style="text;whiteSpace=wrap;html=1;" vertex="1" parent="1">
          <mxGeometry x="680" y="180" width="190" height="120" as="geometry" />
        </mxCell>
        <mxCell id="l84PdnCawKySDigee48M-5" value="EventStateMachine" style="text;whiteSpace=wrap;html=1;" vertex="1" parent="1">
          <mxGeometry x="310" y="370" width="140" height="40" as="geometry" />
        </mxCell>
        <mxCell id="l84PdnCawKySDigee48M-8" value="" style="verticalLabelPosition=bottom;verticalAlign=top;html=1;strokeWidth=2;shape=mxgraph.arrows2.arrow;dy=0.36;dx=32.4;notch=0;" vertex="1" parent="1">
          <mxGeometry x="240" y="370" width="60" height="20" as="geometry" />
        </mxCell>
      </root>
    </mxGraphModel>
  </diagram>
</mxfile>
